<svg width="339" height="328" viewBox="0 0 339 328" fill="none" xmlns="http://www.w3.org/2000/svg">
<mask id="mask0_6_60" style="mask-type:alpha" maskUnits="userSpaceOnUse" x="0" y="0" width="339" height="328">
<rect width="339" height="328" rx="21" fill="#F8F6FA"/>
</mask>
<g mask="url(#mask0_6_60)">
<path d="M-359 277.702C-356 228.369 -308.4 144.502 -142 203.702C66 277.702 99.5 301.202 219 297.202C314.639 294.001 448 216.202 468.5 242.202C481.287 258.419 430 254.202 422 229.702C414 205.202 434 186.644 464 180.202C545.5 162.702 705.5 195.702 705.5 358.702" stroke="black" stroke-width="3"/>
</g>
<path d="M27.9257 42L33.9057 34.54L27.9257 27.22H29.7657L35.3657 34.12V27.22H36.8457V34.12L42.4457 27.22H44.2857L38.3057 34.54L44.2857 42H42.4257L36.8457 35V42H35.3657V35L29.7857 42H27.9257ZM45.6672 42V31.06H47.1472V39.9L53.8072 31.06H55.2872V42H53.8072V33.16L47.1472 42H45.6672ZM57.8157 42V31.06H62.1957C64.5557 31.06 65.9757 32.14 65.9757 33.94C65.9757 34.82 65.3357 35.76 64.4957 36.12C65.8357 36.62 66.5357 37.5 66.5357 38.74C66.5357 40.64 64.8557 42 62.4957 42H57.8157ZM59.2957 35.58H61.9557C63.6157 35.58 64.5557 34.98 64.5557 33.94C64.5557 32.92 63.6757 32.4 61.9557 32.4H59.2957V35.58ZM59.2957 40.66H62.1157C63.9957 40.66 65.0357 39.98 65.0357 38.74C65.0357 37.52 64.0557 36.92 62.1157 36.92H59.2957V40.66ZM69.9988 40.66H72.6388C74.3988 40.66 75.2788 40.02 75.2788 38.72C75.2788 37.42 74.3988 36.78 72.6388 36.78H69.9988V40.66ZM68.5188 42V31.06H69.9988V35.44H73.0188C75.2388 35.44 76.7788 36.78 76.7788 38.72C76.7788 40.66 75.2388 42 73.0188 42H68.5188ZM78.0988 42V31.06H79.5788V42H78.0988ZM91.233 38.4H92.773C91.973 40.7 89.833 42.26 87.453 42.26C84.213 42.26 81.673 39.72 81.673 36.48C81.673 33.3 84.173 30.8 87.333 30.8C90.473 30.8 93.113 33.36 93.113 36.4C93.113 36.6 93.073 36.82 93.033 37.02H83.153C83.273 39.18 85.153 40.9 87.413 40.9C89.073 40.9 90.613 39.9 91.233 38.4ZM83.193 35.68H91.573C91.073 33.5 89.453 32.16 87.333 32.16C85.253 32.16 83.593 33.58 83.193 35.68ZM95.6608 42V39.48H97.1408V42.4C97.1408 43.54 96.2608 44.52 95.2408 44.52V43.64C95.7808 43.64 96.2608 43.12 96.2608 42.54V42H95.6608ZM105.355 42V31.06H106.835V35.94L111.835 31.06H113.755L108.295 36.36L113.755 42H111.815L106.835 36.84V42H105.355ZM114.7 36.56C114.7 33.28 117.18 30.8 120.46 30.8C122.38 30.8 123.68 31.46 124.78 33V31.06H126.26V42H124.78V40.08C123.62 41.64 122.44 42.26 120.58 42.26C117.2 42.26 114.7 39.84 114.7 36.56ZM116.2 36.5C116.2 38.96 118.14 40.9 120.56 40.9C122.94 40.9 124.78 38.98 124.78 36.5C124.78 34.02 122.92 32.16 120.44 32.16C118.1 32.16 116.2 34.1 116.2 36.5ZM128.773 42V31.06H131.073L134.893 39.94L138.713 31.06H141.013V42H139.533V32.68L135.533 42H134.253L130.253 32.68V42H128.773ZM152.678 38.4H154.218C153.418 40.7 151.278 42.26 148.898 42.26C145.658 42.26 143.118 39.72 143.118 36.48C143.118 33.3 145.618 30.8 148.778 30.8C151.918 30.8 154.558 33.36 154.558 36.4C154.558 36.6 154.518 36.82 154.478 37.02H144.598C144.718 39.18 146.598 40.9 148.858 40.9C150.518 40.9 152.058 39.9 152.678 38.4ZM144.638 35.68H153.018C152.518 33.5 150.898 32.16 148.778 32.16C146.698 32.16 145.038 33.58 144.638 35.68ZM156.546 45.84V31.06H158.026V32.94C158.946 31.54 160.446 30.8 162.326 30.8C165.586 30.8 168.086 33.28 168.086 36.54C168.086 39.76 165.566 42.26 162.286 42.26C160.466 42.26 158.986 41.52 158.026 40.12V45.84H156.546ZM162.266 40.9C164.726 40.9 166.586 39.04 166.586 36.58C166.586 34 164.746 32.16 162.206 32.16C159.806 32.16 157.926 34.08 157.926 36.54C157.926 39 159.806 40.9 162.266 40.9ZM170.179 42V31.06H171.659V35.76H178.219V31.06H179.699V42H178.219V37.1H171.659V42H170.179ZM183.69 40.66H186.33C188.09 40.66 188.97 40.02 188.97 38.72C188.97 37.42 188.09 36.78 186.33 36.78H183.69V40.66ZM182.21 42V31.06H183.69V35.44H186.71C188.93 35.44 190.47 36.78 190.47 38.72C190.47 40.66 188.93 42 186.71 42H182.21ZM191.79 42V31.06H193.27V42H191.79ZM204.924 38.4H206.464C205.664 40.7 203.524 42.26 201.144 42.26C197.904 42.26 195.364 39.72 195.364 36.48C195.364 33.3 197.864 30.8 201.024 30.8C204.164 30.8 206.804 33.36 206.804 36.4C206.804 36.6 206.764 36.82 206.724 37.02H196.844C196.964 39.18 198.844 40.9 201.104 40.9C202.764 40.9 204.304 39.9 204.924 38.4ZM196.884 35.68H205.264C204.764 33.5 203.144 32.16 201.024 32.16C198.944 32.16 197.284 33.58 196.884 35.68ZM29.0657 66V55.06H33.4457C35.8057 55.06 37.2257 56.14 37.2257 57.94C37.2257 58.82 36.5857 59.76 35.7457 60.12C37.0857 60.62 37.7857 61.5 37.7857 62.74C37.7857 64.64 36.1057 66 33.7457 66H29.0657ZM30.5457 59.58H33.2057C34.8657 59.58 35.8057 58.98 35.8057 57.94C35.8057 56.92 34.9257 56.4 33.2057 56.4H30.5457V59.58ZM30.5457 64.66H33.3657C35.2457 64.66 36.2857 63.98 36.2857 62.74C36.2857 61.52 35.3057 60.92 33.3657 60.92H30.5457V64.66ZM41.2488 64.66H43.8888C45.6488 64.66 46.5288 64.02 46.5288 62.72C46.5288 61.42 45.6488 60.78 43.8888 60.78H41.2488V64.66ZM39.7688 66V55.06H41.2488V59.44H44.2688C46.4888 59.44 48.0288 60.78 48.0288 62.72C48.0288 64.66 46.4888 66 44.2688 66H39.7688ZM49.3488 66V55.06H50.8288V66H49.3488ZM62.563 62.78H64.243C62.983 65.14 61.263 66.26 58.883 66.26C55.523 66.26 52.923 63.76 52.923 60.5C52.923 57.32 55.503 54.8 58.783 54.8C61.263 54.8 63.343 56.18 64.223 58.38H62.563C61.723 56.94 60.383 56.16 58.763 56.16C56.323 56.16 54.423 58.08 54.423 60.54C54.423 62.98 56.363 64.9 58.823 64.9C60.383 64.9 61.423 64.3 62.563 62.78ZM68.1522 66V56.4H65.2722V55.06H72.4722V56.4H69.6322V66H68.1522ZM75.348 69.84L77.128 65.64L72.888 55.06H74.508L77.968 63.78L81.668 55.06H83.248L76.928 69.84H75.348ZM84.6907 66V55.06H94.1107V66H92.6307V56.4H86.1707V66H84.6907ZM95.4643 66L100.164 55.06H101.824L106.524 66H104.964L101.004 56.74L97.0243 66H95.4643ZM116.116 62.4H117.656C116.856 64.7 114.716 66.26 112.336 66.26C109.096 66.26 106.556 63.72 106.556 60.48C106.556 57.3 109.056 54.8 112.216 54.8C115.356 54.8 117.996 57.36 117.996 60.4C117.996 60.6 117.956 60.82 117.916 61.02H108.036C108.156 63.18 110.036 64.9 112.296 64.9C113.956 64.9 115.496 63.9 116.116 62.4ZM108.076 59.68H116.456C115.956 57.5 114.336 56.16 112.216 56.16C110.136 56.16 108.476 57.58 108.076 59.68ZM119.984 66V55.06H121.464V59.76H128.024V55.06H129.504V66H128.024V61.1H121.464V66H119.984ZM132.015 66V55.06H133.495V63.9L140.155 55.06H141.635V66H140.155V57.16L133.495 66H132.015ZM150.263 60.24V56.4H147.723C145.963 56.4 145.083 57.04 145.083 58.32C145.083 59.6 145.963 60.24 147.723 60.24H150.263ZM143.083 66L146.243 61.46C144.603 61.08 143.583 59.88 143.583 58.32C143.583 56.4 145.123 55.06 147.343 55.06H151.743V66H150.263V61.58H147.843L144.763 66H143.083ZM154.821 66V63.48H156.301V66.4C156.301 67.54 155.421 68.52 154.401 68.52V67.64C154.941 67.64 155.421 67.12 155.421 66.54V66H154.821ZM29.0657 90V79.06H34.6657V80.4H30.5457V90H29.0657ZM35.255 92.52V88.66H36.675L40.775 79.06H42.455L46.555 88.66H47.975V92.52H46.955L46.415 90H36.815L36.275 92.52H35.255ZM38.235 88.66H44.995L41.615 80.74L38.235 88.66ZM57.7955 86.4H59.3355C58.5355 88.7 56.3955 90.26 54.0155 90.26C50.7755 90.26 48.2355 87.72 48.2355 84.48C48.2355 81.3 50.7355 78.8 53.8955 78.8C57.0355 78.8 59.6755 81.36 59.6755 84.4C59.6755 84.6 59.6355 84.82 59.5955 85.02H49.7155C49.8355 87.18 51.7155 88.9 53.9755 88.9C55.6355 88.9 57.1755 87.9 57.7955 86.4ZM49.7555 83.68H58.1355C57.6355 81.5 56.0155 80.16 53.8955 80.16C51.8155 80.16 50.1555 81.58 49.7555 83.68ZM66.7902 84.56C66.7902 81.28 69.2702 78.8 72.5502 78.8C74.4702 78.8 75.7702 79.46 76.8702 81V79.06H78.3502V90H76.8702V88.08C75.7102 89.64 74.5302 90.26 72.6702 90.26C69.2902 90.26 66.7902 87.84 66.7902 84.56ZM68.2902 84.5C68.2902 86.96 70.2302 88.9 72.6502 88.9C75.0302 88.9 76.8702 86.98 76.8702 84.5C76.8702 82.02 75.0102 80.16 72.5302 80.16C70.1902 80.16 68.2902 82.1 68.2902 84.5ZM80.8625 90V79.06H82.3425V83.94L87.3425 79.06H89.2625L83.8025 84.36L89.2625 90H87.3225L82.3425 84.84V90H80.8625ZM90.6282 90V79.06H92.1082V88.66H98.3682V79.06H99.8482V88.66H101.628V92.52H100.608L100.068 90H90.6282ZM112.21 86.4H113.75C112.95 88.7 110.81 90.26 108.43 90.26C105.19 90.26 102.65 87.72 102.65 84.48C102.65 81.3 105.15 78.8 108.31 78.8C111.45 78.8 114.09 81.36 114.09 84.4C114.09 84.6 114.05 84.82 114.01 85.02H104.13C104.25 87.18 106.13 88.9 108.39 88.9C110.05 88.9 111.59 87.9 112.21 86.4ZM104.17 83.68H112.55C112.05 81.5 110.43 80.16 108.31 80.16C106.23 80.16 104.57 81.58 104.17 83.68ZM116.077 90V79.06H117.557V83.76H124.117V79.06H125.597V90H124.117V85.1H117.557V90H116.077ZM129.969 90V80.4H127.089V79.06H134.289V80.4H131.449V90H129.969ZM135.784 90V79.06H137.264V87.9L143.924 79.06H145.404V90H143.924V81.16L137.264 90H135.784ZM147.933 93.84V79.06H149.413V80.94C150.333 79.54 151.833 78.8 153.713 78.8C156.973 78.8 159.473 81.28 159.473 84.54C159.473 87.76 156.953 90.26 153.673 90.26C151.853 90.26 150.373 89.52 149.413 88.12V93.84H147.933ZM153.653 88.9C156.113 88.9 157.973 87.04 157.973 84.58C157.973 82 156.133 80.16 153.593 80.16C151.193 80.16 149.313 82.08 149.313 84.54C149.313 87 151.193 88.9 153.653 88.9ZM162.946 93.84L164.726 89.64L160.486 79.06H162.106L165.566 87.78L169.266 79.06H170.846L164.526 93.84H162.946ZM181.428 86.4H182.968C182.168 88.7 180.028 90.26 177.648 90.26C174.408 90.26 171.868 87.72 171.868 84.48C171.868 81.3 174.368 78.8 177.528 78.8C180.668 78.8 183.308 81.36 183.308 84.4C183.308 84.6 183.268 84.82 183.228 85.02H173.348C173.468 87.18 175.348 88.9 177.608 88.9C179.268 88.9 180.808 87.9 181.428 86.4ZM173.388 83.68H181.768C181.268 81.5 179.648 80.16 177.528 80.16C175.448 80.16 173.788 81.58 173.388 83.68ZM185.296 90V79.06H187.596L191.416 87.94L195.236 79.06H197.536V90H196.056V80.68L192.056 90H190.776L186.776 80.68V90H185.296ZM205.609 90V79.06H209.989C212.349 79.06 213.769 80.14 213.769 81.94C213.769 82.82 213.129 83.76 212.289 84.12C213.629 84.62 214.329 85.5 214.329 86.74C214.329 88.64 212.649 90 210.289 90H205.609ZM207.089 83.58H209.749C211.409 83.58 212.349 82.98 212.349 81.94C212.349 80.92 211.469 80.4 209.749 80.4H207.089V83.58ZM207.089 88.66H209.909C211.789 88.66 212.829 87.98 212.829 86.74C212.829 85.52 211.849 84.92 209.909 84.92H207.089V88.66ZM216.312 90V79.06H217.792V83.76H224.352V79.06H225.832V90H224.352V85.1H217.792V90H216.312ZM228.343 90V79.06H229.823V87.9L236.483 79.06H237.963V90H236.483V81.16L229.823 90H228.343ZM240.491 90V79.06H242.791L246.611 87.94L250.431 79.06H252.731V90H251.251V80.68L247.251 90H245.971L241.971 80.68V90H240.491ZM254.837 84.56C254.837 81.28 257.317 78.8 260.597 78.8C262.517 78.8 263.817 79.46 264.917 81V79.06H266.397V90H264.917V88.08C263.757 89.64 262.577 90.26 260.717 90.26C257.337 90.26 254.837 87.84 254.837 84.56ZM256.337 84.5C256.337 86.96 258.277 88.9 260.697 88.9C263.077 88.9 264.917 86.98 264.917 84.5C264.917 82.02 263.057 80.16 260.577 80.16C258.237 80.16 256.337 82.1 256.337 84.5ZM268.909 90V79.06H270.389V83.76H276.949V79.06H278.429V90H276.949V85.1H270.389V90H268.909ZM280.941 90V79.06H282.421V87.9L289.081 79.06H290.561V90H289.081V81.16L282.421 90H280.941ZM302.229 86.4H303.769C302.969 88.7 300.829 90.26 298.449 90.26C295.209 90.26 292.669 87.72 292.669 84.48C292.669 81.3 295.169 78.8 298.329 78.8C301.469 78.8 304.109 81.36 304.109 84.4C304.109 84.6 304.069 84.82 304.029 85.02H294.149C294.269 87.18 296.149 88.9 298.409 88.9C300.069 88.9 301.609 87.9 302.229 86.4ZM294.189 83.68H302.569C302.069 81.5 300.449 80.16 298.329 80.16C296.249 80.16 294.589 81.58 294.189 83.68ZM29.0657 114V103.06H30.5457V107.76H37.1057V103.06H38.5857V114H37.1057V109.1H30.5457V114H29.0657ZM40.6769 108.56C40.6769 105.28 43.1569 102.8 46.4369 102.8C48.3569 102.8 49.6569 103.46 50.7569 105V103.06H52.2369V114H50.7569V112.08C49.5969 113.64 48.4169 114.26 46.5569 114.26C43.1769 114.26 40.6769 111.84 40.6769 108.56ZM42.1769 108.5C42.1769 110.96 44.1169 112.9 46.5369 112.9C48.9169 112.9 50.7569 110.98 50.7569 108.5C50.7569 106.02 48.8969 104.16 46.4169 104.16C44.0769 104.16 42.1769 106.1 42.1769 108.5ZM62.1561 114V104.4H59.2761V103.06H66.4761V104.4H63.6361V114H62.1561ZM67.5519 108.54C67.5519 105.22 69.9919 102.8 73.3519 102.8C76.5719 102.8 78.9719 105.26 78.9719 108.56C78.9719 111.84 76.6119 114.26 73.3919 114.26C70.0519 114.26 67.5519 111.82 67.5519 108.54ZM73.3519 112.9C75.7519 112.9 77.4719 111.1 77.4719 108.58C77.4719 106 75.7119 104.16 73.2319 104.16C70.8319 104.16 69.0519 106.04 69.0519 108.56C69.0519 111.06 70.8719 112.9 73.3519 112.9ZM81.0774 114V103.06H83.3774L87.1974 111.94L91.0174 103.06H93.3174V114H91.8374V104.68L87.8374 114H86.5574L82.5574 104.68V114H81.0774ZM96.403 114V111.48H97.883V114.4C97.883 115.54 97.003 116.52 95.983 116.52V115.64C96.523 115.64 97.003 115.12 97.003 114.54V114H96.403ZM106.097 114V103.06H107.577V107.94L112.577 103.06H114.497L109.037 108.36L114.497 114H112.557L107.577 108.84V114H106.097ZM115.443 108.56C115.443 105.28 117.923 102.8 121.203 102.8C123.123 102.8 124.423 103.46 125.523 105V103.06H127.003V114H125.523V112.08C124.363 113.64 123.183 114.26 121.323 114.26C117.943 114.26 115.443 111.84 115.443 108.56ZM116.943 108.5C116.943 110.96 118.883 112.9 121.303 112.9C123.683 112.9 125.523 110.98 125.523 108.5C125.523 106.02 123.663 104.16 121.183 104.16C118.843 104.16 116.943 106.1 116.943 108.5ZM129.515 114V103.06H130.995V107.94L135.995 103.06H137.915L132.455 108.36L137.915 114H135.975L130.995 108.84V114H129.515ZM144.827 114V103.06H154.247V114H152.767V104.4H146.307V114H144.827ZM156.761 117.84V103.06H158.241V104.94C159.161 103.54 160.661 102.8 162.541 102.8C165.801 102.8 168.301 105.28 168.301 108.54C168.301 111.76 165.781 114.26 162.501 114.26C160.681 114.26 159.201 113.52 158.241 112.12V117.84H156.761ZM162.481 112.9C164.941 112.9 166.801 111.04 166.801 108.58C166.801 106 164.961 104.16 162.421 104.16C160.021 104.16 158.141 106.08 158.141 108.54C158.141 111 160.021 112.9 162.481 112.9ZM169.974 108.56C169.974 105.28 172.454 102.8 175.734 102.8C177.654 102.8 178.954 103.46 180.054 105V103.06H181.534V114H180.054V112.08C178.894 113.64 177.714 114.26 175.854 114.26C172.474 114.26 169.974 111.84 169.974 108.56ZM171.474 108.5C171.474 110.96 173.414 112.9 175.834 112.9C178.214 112.9 180.054 110.98 180.054 108.5C180.054 106.02 178.194 104.16 175.714 104.16C173.374 104.16 171.474 106.1 171.474 108.5ZM184.046 114V103.06H188.426C190.786 103.06 192.206 104.14 192.206 105.94C192.206 106.82 191.566 107.76 190.726 108.12C192.066 108.62 192.766 109.5 192.766 110.74C192.766 112.64 191.086 114 188.726 114H184.046ZM185.526 107.58H188.186C189.846 107.58 190.786 106.98 190.786 105.94C190.786 104.92 189.906 104.4 188.186 104.4H185.526V107.58ZM185.526 112.66H188.346C190.226 112.66 191.266 111.98 191.266 110.74C191.266 109.52 190.286 108.92 188.346 108.92H185.526V112.66ZM194.749 114V103.06H196.229V111.9L202.889 103.06H204.369V114H202.889V105.16L196.229 114H194.749ZM205.738 114L210.438 103.06H212.098L216.798 114H215.238L211.278 104.74L207.298 114H205.738ZM219.647 112.66H222.487C224.247 112.66 225.127 112.02 225.127 110.72C225.127 109.42 224.247 108.78 222.487 108.78H219.647V112.66ZM218.167 114V103.06H219.647V107.44H222.867C225.087 107.44 226.627 108.78 226.627 110.72C226.627 112.66 225.087 114 222.867 114H218.167ZM228.343 114V103.06H229.823V107.76H236.383V103.06H237.863V114H236.383V109.1H229.823V114H228.343ZM239.954 108.54C239.954 105.22 242.394 102.8 245.754 102.8C248.974 102.8 251.374 105.26 251.374 108.56C251.374 111.84 249.014 114.26 245.794 114.26C242.454 114.26 239.954 111.82 239.954 108.54ZM245.754 112.9C248.154 112.9 249.874 111.1 249.874 108.58C249.874 106 248.114 104.16 245.634 104.16C243.234 104.16 241.454 106.04 241.454 108.56C241.454 111.06 243.274 112.9 245.754 112.9ZM29.0657 138V127.06H33.4457C35.8057 127.06 37.2257 128.14 37.2257 129.94C37.2257 130.82 36.5857 131.76 35.7457 132.12C37.0857 132.62 37.7857 133.5 37.7857 134.74C37.7857 136.64 36.1057 138 33.7457 138H29.0657ZM30.5457 131.58H33.2057C34.8657 131.58 35.8057 130.98 35.8057 129.94C35.8057 128.92 34.9257 128.4 33.2057 128.4H30.5457V131.58ZM30.5457 136.66H33.3657C35.2457 136.66 36.2857 135.98 36.2857 134.74C36.2857 133.52 35.3057 132.92 33.3657 132.92H30.5457V136.66ZM39.3488 132.54C39.3488 129.22 41.7888 126.8 45.1488 126.8C48.3688 126.8 50.7688 129.26 50.7688 132.56C50.7688 135.84 48.4088 138.26 45.1888 138.26C41.8488 138.26 39.3488 135.82 39.3488 132.54ZM45.1488 136.9C47.5488 136.9 49.2688 135.1 49.2688 132.58C49.2688 130 47.5088 128.16 45.0288 128.16C42.6288 128.16 40.8488 130.04 40.8488 132.56C40.8488 135.06 42.6688 136.9 45.1488 136.9ZM62.0943 134.78H63.7743C62.5143 137.14 60.7943 138.26 58.4143 138.26C55.0543 138.26 52.4543 135.76 52.4543 132.5C52.4543 129.32 55.0343 126.8 58.3143 126.8C60.7943 126.8 62.8743 128.18 63.7543 130.38H62.0943C61.2543 128.94 59.9143 128.16 58.2943 128.16C55.8543 128.16 53.9543 130.08 53.9543 132.54C53.9543 134.98 55.8943 136.9 58.3543 136.9C59.9143 136.9 60.9543 136.3 62.0943 134.78ZM65.8235 138V127.06H75.2435V138H73.7635V128.4H67.3035V138H65.8235ZM77.7571 141.84V127.06H79.2371V128.94C80.1571 127.54 81.6571 126.8 83.5371 126.8C86.7971 126.8 89.2971 129.28 89.2971 132.54C89.2971 135.76 86.7771 138.26 83.4971 138.26C81.6771 138.26 80.1971 137.52 79.2371 136.12V141.84H77.7571ZM83.4771 136.9C85.9371 136.9 87.7971 135.04 87.7971 132.58C87.7971 130 85.9571 128.16 83.4171 128.16C81.0171 128.16 79.1371 130.08 79.1371 132.54C79.1371 135 81.0171 136.9 83.4771 136.9ZM91.3899 138V127.06H92.8699V135.9L99.5299 127.06H101.01V138H99.5299V129.16L92.8699 138H91.3899ZM103.538 138V127.06H105.018V131.76H111.578V127.06H113.058V138H111.578V133.1H105.018V138H103.538ZM115.57 138V127.06H117.05V135.9L123.71 127.06H125.19V138H123.71V129.16L117.05 138H115.57ZM127.718 138V127.06H130.018L133.838 135.94L137.658 127.06H139.958V138H138.478V128.68L134.478 138H133.198L129.198 128.68V138H127.718ZM142.064 132.56C142.064 129.28 144.544 126.8 147.824 126.8C149.744 126.8 151.044 127.46 152.144 129V127.06H153.624V138H152.144V136.08C150.984 137.64 149.804 138.26 147.944 138.26C144.564 138.26 142.064 135.84 142.064 132.56ZM143.564 132.5C143.564 134.96 145.504 136.9 147.924 136.9C150.304 136.9 152.144 134.98 152.144 132.5C152.144 130.02 150.284 128.16 147.804 128.16C145.464 128.16 143.564 130.1 143.564 132.5ZM157.996 138V128.4H155.116V127.06H162.316V128.4H159.476V138H157.996ZM165.292 136.66H168.132C169.892 136.66 170.772 136.02 170.772 134.72C170.772 133.42 169.892 132.78 168.132 132.78H165.292V136.66ZM163.812 138V127.06H165.292V131.44H168.512C170.732 131.44 172.272 132.78 172.272 134.72C172.272 136.66 170.732 138 168.512 138H163.812ZM29.0657 162V151.06H30.5457V159.9L37.2057 151.06H38.6857V162H37.2057V153.16L30.5457 162H29.0657ZM46.761 162V151.06H48.241V155.76H54.801V151.06H56.281V162H54.801V157.1H48.241V162H46.761ZM58.3722 156.56C58.3722 153.28 60.8522 150.8 64.1322 150.8C66.0522 150.8 67.3522 151.46 68.4522 153V151.06H69.9322V162H68.4522V160.08C67.2922 161.64 66.1122 162.26 64.2522 162.26C60.8722 162.26 58.3722 159.84 58.3722 156.56ZM59.8722 156.5C59.8722 158.96 61.8122 160.9 64.2322 160.9C66.6122 160.9 68.4522 158.98 68.4522 156.5C68.4522 154.02 66.5922 152.16 64.1122 152.16C61.7722 152.16 59.8722 154.1 59.8722 156.5ZM81.6646 158.78H83.3446C82.0846 161.14 80.3646 162.26 77.9846 162.26C74.6246 162.26 72.0246 159.76 72.0246 156.5C72.0246 153.32 74.6046 150.8 77.8846 150.8C80.3646 150.8 82.4446 152.18 83.3246 154.38H81.6646C80.8246 152.94 79.4846 152.16 77.8646 152.16C75.4246 152.16 73.5246 154.08 73.5246 156.54C73.5246 158.98 75.4646 160.9 77.9246 160.9C79.4846 160.9 80.5246 160.3 81.6646 158.78ZM83.3158 162L88.0158 151.06H89.6758L94.3758 162H92.8158L88.8558 152.74L84.8758 162H83.3158ZM94.4074 156.56C94.4074 153.28 96.8874 150.8 100.167 150.8C102.087 150.8 103.387 151.46 104.487 153V151.06H105.967V162H104.487V160.08C103.327 161.64 102.147 162.26 100.287 162.26C96.9074 162.26 94.4074 159.84 94.4074 156.56ZM95.9074 156.5C95.9074 158.96 97.8474 160.9 100.267 160.9C102.647 160.9 104.487 158.98 104.487 156.5C104.487 154.02 102.627 152.16 100.147 152.16C97.8074 152.16 95.9074 154.1 95.9074 156.5ZM107.32 162L112 156.38L107.32 151.06H109.18L113.5 156.02V151.06H114.98V156.02L119.3 151.06H121.16L116.48 156.38L121.16 162H119.3L114.98 156.76V162H113.5V156.76L109.18 162H107.32ZM121.603 164.52V160.66H123.023L127.123 151.06H128.803L132.903 160.66H134.323V164.52H133.303L132.763 162H123.163L122.623 164.52H121.603ZM124.583 160.66H131.343L127.963 152.74L124.583 160.66ZM134.583 156.56C134.583 153.28 137.063 150.8 140.343 150.8C142.263 150.8 143.563 151.46 144.663 153V151.06H146.143V162H144.663V160.08C143.503 161.64 142.323 162.26 140.463 162.26C137.083 162.26 134.583 159.84 134.583 156.56ZM136.083 156.5C136.083 158.96 138.023 160.9 140.443 160.9C142.823 160.9 144.663 158.98 144.663 156.5C144.663 154.02 142.803 152.16 140.323 152.16C137.983 152.16 136.083 154.1 136.083 156.5ZM150.516 162V152.4H147.636V151.06H154.836V152.4H151.996V162H150.516ZM157.811 160.66H160.651C162.411 160.66 163.291 160.02 163.291 158.72C163.291 157.42 162.411 156.78 160.651 156.78H157.811V160.66ZM156.331 162V151.06H157.811V155.44H161.031C163.251 155.44 164.791 156.78 164.791 158.72C164.791 160.66 163.251 162 161.031 162H156.331ZM175.727 158.78H177.407C176.147 161.14 174.427 162.26 172.047 162.26C168.687 162.26 166.087 159.76 166.087 156.5C166.087 153.32 168.667 150.8 171.947 150.8C174.427 150.8 176.507 152.18 177.387 154.38H175.727C174.887 152.94 173.547 152.16 171.927 152.16C169.487 152.16 167.587 154.08 167.587 156.54C167.587 158.98 169.527 160.9 171.987 160.9C173.547 160.9 174.587 160.3 175.727 158.78ZM185.556 156.24V152.4H183.016C181.256 152.4 180.376 153.04 180.376 154.32C180.376 155.6 181.256 156.24 183.016 156.24H185.556ZM178.376 162L181.536 157.46C179.896 157.08 178.876 155.88 178.876 154.32C178.876 152.4 180.416 151.06 182.636 151.06H187.036V162H185.556V157.58H183.136L180.056 162H178.376ZM204.321 158.78H206.001C204.741 161.14 203.021 162.26 200.641 162.26C197.281 162.26 194.681 159.76 194.681 156.5C194.681 153.32 197.261 150.8 200.541 150.8C203.021 150.8 205.101 152.18 205.981 154.38H204.321C203.481 152.94 202.141 152.16 200.521 152.16C198.081 152.16 196.181 154.08 196.181 156.54C196.181 158.98 198.121 160.9 200.581 160.9C202.141 160.9 203.181 160.3 204.321 158.78ZM205.972 162L210.672 151.06H212.332L217.032 162H215.472L211.512 152.74L207.532 162H205.972ZM217.064 156.54C217.064 153.22 219.504 150.8 222.864 150.8C226.084 150.8 228.484 153.26 228.484 156.56C228.484 159.84 226.124 162.26 222.904 162.26C219.564 162.26 217.064 159.82 217.064 156.54ZM222.864 160.9C225.264 160.9 226.984 159.1 226.984 156.58C226.984 154 225.224 152.16 222.744 152.16C220.344 152.16 218.564 154.04 218.564 156.56C218.564 159.06 220.384 160.9 222.864 160.9ZM229.429 162L234.109 156.38L229.429 151.06H231.289L235.609 156.02V151.06H237.089V156.02L241.409 151.06H243.269L238.589 156.38L243.269 162H241.409L237.089 156.76V162H235.609V156.76L231.289 162H229.429ZM244.632 162V151.06H246.112V155.76H252.672V151.06H254.152V162H252.672V157.1H246.112V162H244.632ZM258.143 160.66H260.783C262.543 160.66 263.423 160.02 263.423 158.72C263.423 157.42 262.543 156.78 260.783 156.78H258.143V160.66ZM256.663 162V151.06H258.143V155.44H261.163C263.383 155.44 264.923 156.78 264.923 158.72C264.923 160.66 263.383 162 261.163 162H256.663ZM266.243 162V151.06H267.723V162H266.243ZM270.238 162V151.06H272.538L276.358 159.94L280.178 151.06H282.478V162H280.998V152.68L276.998 162H275.718L271.718 152.68V162H270.238ZM285.003 162V151.06H286.483V159.9L293.143 151.06H294.623V162H293.143V153.16L286.483 162H285.003ZM29.0657 186V175.06H38.4857V186H37.0057V176.4H30.5457V186H29.0657ZM40.9993 189.84V175.06H42.4793V176.94C43.3993 175.54 44.8993 174.8 46.7793 174.8C50.0393 174.8 52.5393 177.28 52.5393 180.54C52.5393 183.76 50.0193 186.26 46.7393 186.26C44.9193 186.26 43.4393 185.52 42.4793 184.12V189.84H40.9993ZM46.7193 184.9C49.1793 184.9 51.0393 183.04 51.0393 180.58C51.0393 178 49.1993 176.16 46.6593 176.16C44.2593 176.16 42.3793 178.08 42.3793 180.54C42.3793 183 44.2593 184.9 46.7193 184.9ZM54.2121 180.54C54.2121 177.22 56.6521 174.8 60.0121 174.8C63.2321 174.8 65.6321 177.26 65.6321 180.56C65.6321 183.84 63.2721 186.26 60.0521 186.26C56.7121 186.26 54.2121 183.82 54.2121 180.54ZM60.0121 184.9C62.4121 184.9 64.1321 183.1 64.1321 180.58C64.1321 178 62.3721 176.16 59.8921 176.16C57.4921 176.16 55.7121 178.04 55.7121 180.56C55.7121 183.06 57.5321 184.9 60.0121 184.9ZM67.7375 186V175.06H69.2175V183.9L75.8775 175.06H77.3575V186H75.8775V177.16L69.2175 186H67.7375ZM79.346 182.84H80.846C80.926 184.04 82.006 184.9 83.406 184.9C84.846 184.9 86.006 183.98 86.006 182.84C86.006 181.58 84.706 180.84 82.546 180.84V179.62C84.406 179.62 85.426 178.98 85.426 177.82C85.426 176.92 84.506 176.18 83.386 176.18C82.306 176.18 81.466 176.86 81.386 177.82H79.886C79.966 176.1 81.466 174.8 83.406 174.8C85.386 174.8 86.926 176.12 86.926 177.82C86.926 178.9 86.366 179.7 85.346 180.06V180.12C86.746 180.52 87.506 181.46 87.506 182.84C87.506 184.74 85.706 186.26 83.426 186.26C81.186 186.26 79.426 184.78 79.346 182.84ZM89.4954 186V175.06H93.8754C96.2354 175.06 97.6554 176.14 97.6554 177.94C97.6554 178.82 97.0154 179.76 96.1754 180.12C97.5154 180.62 98.2154 181.5 98.2154 182.74C98.2154 184.64 96.5354 186 94.1754 186H89.4954ZM90.9754 179.58H93.6354C95.2954 179.58 96.2354 178.98 96.2354 177.94C96.2354 176.92 95.3554 176.4 93.6354 176.4H90.9754V179.58ZM90.9754 184.66H93.7954C95.6754 184.66 96.7154 183.98 96.7154 182.74C96.7154 181.52 95.7354 180.92 93.7954 180.92H90.9754V184.66ZM109.338 182.4H110.878C110.078 184.7 107.938 186.26 105.558 186.26C102.318 186.26 99.7785 183.72 99.7785 180.48C99.7785 177.3 102.278 174.8 105.438 174.8C108.578 174.8 111.218 177.36 111.218 180.4C111.218 180.6 111.178 180.82 111.138 181.02H101.258C101.378 183.18 103.258 184.9 105.518 184.9C107.178 184.9 108.718 183.9 109.338 182.4ZM101.298 179.68H109.678C109.178 177.5 107.558 176.16 105.438 176.16C103.358 176.16 101.698 177.58 101.298 179.68ZM111.368 188.52V184.66H112.788L116.888 175.06H118.568L122.668 184.66H124.088V188.52H123.068L122.528 186H112.928L112.388 188.52H111.368ZM114.348 184.66H121.108L117.728 176.74L114.348 184.66ZM133.909 182.4H135.449C134.649 184.7 132.509 186.26 130.129 186.26C126.889 186.26 124.349 183.72 124.349 180.48C124.349 177.3 126.849 174.8 130.009 174.8C133.149 174.8 135.789 177.36 135.789 180.4C135.789 180.6 135.749 180.82 135.709 181.02H125.829C125.949 183.18 127.829 184.9 130.089 184.9C131.749 184.9 133.289 183.9 133.909 182.4ZM125.869 179.68H134.249C133.749 177.5 132.129 176.16 130.009 176.16C127.929 176.16 126.269 177.58 125.869 179.68ZM137.777 186V175.06H139.257V179.76H145.817V175.06H147.297V186H145.817V181.1H139.257V186H137.777ZM149.808 186V175.06H151.288V183.9L157.948 175.06H159.428V186H157.948V177.16L151.288 186H149.808ZM168.056 180.24V176.4H165.516C163.756 176.4 162.876 177.04 162.876 178.32C162.876 179.6 163.756 180.24 165.516 180.24H168.056ZM160.876 186L164.036 181.46C162.396 181.08 161.376 179.88 161.376 178.32C161.376 176.4 162.916 175.06 165.136 175.06H169.536V186H168.056V181.58H165.636L162.556 186H160.876ZM172.054 186V175.06H174.354L178.174 183.94L181.994 175.06H184.294V186H182.814V176.68L178.814 186H177.534L173.534 176.68V186H172.054ZM186.82 186V175.06H188.3V183.9L194.96 175.06H196.44V186H194.96V177.16L188.3 186H186.82Z" fill="black"/>
</svg>
