<svg width="339" height="328" viewBox="0 0 339 328" fill="none" xmlns="http://www.w3.org/2000/svg">
<mask id="mask0_6_59" style="mask-type:alpha" maskUnits="userSpaceOnUse" x="0" y="0" width="339" height="328">
<rect width="339" height="328" rx="21" fill="#F8F6FA"/>
</mask>
<g mask="url(#mask0_6_59)">
<path d="M0 277.702C3 228.369 50.6 144.502 217 203.702C425 277.702 458.5 301.202 578 297.202C673.639 294.001 807 216.202 827.5 242.202C840.287 258.419 789 254.202 781 229.702C773 205.202 793 186.644 823 180.202C904.5 162.702 1064.5 195.702 1064.5 358.702" stroke="black" stroke-width="3"/>
</g>
<path d="M37.9353 38.12H39.5753C38.0953 40.86 35.8153 42.26 32.8153 42.26C28.3953 42.26 25.0553 38.98 25.0553 34.66C25.0553 30.24 28.3153 26.96 32.7153 26.96C35.7753 26.96 38.3753 28.52 39.5153 31.06H37.8553C36.6953 29.22 35.0153 28.32 32.7753 28.32C29.2353 28.32 26.5553 31.04 26.5553 34.6C26.5553 38.08 29.3553 40.9 32.7953 40.9C34.8753 40.9 36.4753 40.04 37.9353 38.12ZM40.7848 44.52V40.66H42.2048L46.3048 31.06H47.9848L52.0848 40.66H53.5048V44.52H52.4848L51.9448 42H42.3448L41.8048 44.52H40.7848ZM43.7648 40.66H50.5248L47.1448 32.74L43.7648 40.66ZM63.3253 38.4H64.8653C64.0653 40.7 61.9253 42.26 59.5453 42.26C56.3053 42.26 53.7653 39.72 53.7653 36.48C53.7653 33.3 56.2653 30.8 59.4253 30.8C62.5653 30.8 65.2053 33.36 65.2053 36.4C65.2053 36.6 65.1653 36.82 65.1253 37.02H55.2453C55.3653 39.18 57.2453 40.9 59.5053 40.9C61.1653 40.9 62.7053 39.9 63.3253 38.4ZM55.2853 35.68H63.6653C63.1653 33.5 61.5453 32.16 59.4253 32.16C57.3453 32.16 55.6853 33.58 55.2853 35.68ZM65.1151 42L69.8151 31.06H71.4751L76.1751 42H74.6151L70.6551 32.74L66.6751 42H65.1151ZM76.2067 36.56C76.2067 33.28 78.6867 30.8 81.9667 30.8C83.8867 30.8 85.1867 31.46 86.2867 33V31.06H87.7667V42H86.2867V40.08C85.1267 41.64 83.9467 42.26 82.0867 42.26C78.7067 42.26 76.2067 39.84 76.2067 36.56ZM77.7067 36.5C77.7067 38.96 79.6467 40.9 82.0667 40.9C84.4467 40.9 86.2867 38.98 86.2867 36.5C86.2867 34.02 84.4267 32.16 81.9467 32.16C79.6067 32.16 77.7067 34.1 77.7067 36.5ZM92.139 42V32.4H89.259V31.06H96.459V32.4H93.619V42H92.139ZM99.4348 40.66H102.275C104.035 40.66 104.915 40.02 104.915 38.72C104.915 37.42 104.035 36.78 102.275 36.78H99.4348V40.66ZM97.9548 42V31.06H99.4348V35.44H102.655C104.875 35.44 106.415 36.78 106.415 38.72C106.415 40.66 104.875 42 102.655 42H97.9548ZM113.677 42V31.06H115.157V35.94L120.157 31.06H122.077L116.617 36.36L122.077 42H120.137L115.157 36.84V42H113.677ZM122.283 42L126.983 31.06H128.643L133.343 42H131.783L127.823 32.74L123.843 42H122.283ZM133.375 36.56C133.375 33.28 135.855 30.8 139.135 30.8C141.055 30.8 142.355 31.46 143.455 33V31.06H144.935V42H143.455V40.08C142.295 41.64 141.115 42.26 139.255 42.26C135.875 42.26 133.375 39.84 133.375 36.56ZM134.875 36.5C134.875 38.96 136.815 40.9 139.235 40.9C141.615 40.9 143.455 38.98 143.455 36.5C143.455 34.02 141.595 32.16 139.115 32.16C136.775 32.16 134.875 34.1 134.875 36.5ZM156.667 38.78H158.347C157.087 41.14 155.367 42.26 152.987 42.26C149.627 42.26 147.027 39.76 147.027 36.5C147.027 33.32 149.607 30.8 152.887 30.8C155.367 30.8 157.447 32.18 158.327 34.38H156.667C155.827 32.94 154.487 32.16 152.867 32.16C150.427 32.16 148.527 34.08 148.527 36.54C148.527 38.98 150.467 40.9 152.927 40.9C154.487 40.9 155.527 40.3 156.667 38.78ZM169.616 38.78H171.296C170.036 41.14 168.316 42.26 165.936 42.26C162.576 42.26 159.976 39.76 159.976 36.5C159.976 33.32 162.556 30.8 165.836 30.8C168.316 30.8 170.396 32.18 171.276 34.38H169.616C168.776 32.94 167.436 32.16 165.816 32.16C163.376 32.16 161.476 34.08 161.476 36.54C161.476 38.98 163.416 40.9 165.876 40.9C167.436 40.9 168.476 40.3 169.616 38.78ZM173.345 42V31.06H174.825V39.9L181.485 31.06H182.965V42H181.485V33.16L174.825 42H173.345ZM191.954 42V37.64C190.834 37.78 189.694 37.84 188.514 37.84C186.414 37.84 185.134 36.52 185.134 34.38V31.06H186.614V34.38C186.614 36.06 187.254 36.5 189.694 36.5C190.414 36.5 190.934 36.46 191.954 36.32V31.06H193.434V42H191.954ZM205.103 38.4H206.643C205.843 40.7 203.703 42.26 201.323 42.26C198.083 42.26 195.543 39.72 195.543 36.48C195.543 33.3 198.043 30.8 201.203 30.8C204.343 30.8 206.983 33.36 206.983 36.4C206.983 36.6 206.943 36.82 206.903 37.02H197.023C197.143 39.18 199.023 40.9 201.283 40.9C202.943 40.9 204.483 39.9 205.103 38.4ZM197.063 35.68H205.443C204.943 33.5 203.323 32.16 201.203 32.16C199.123 32.16 197.463 33.58 197.063 35.68ZM218.19 38.78H219.87C218.61 41.14 216.89 42.26 214.51 42.26C211.15 42.26 208.55 39.76 208.55 36.5C208.55 33.32 211.13 30.8 214.41 30.8C216.89 30.8 218.97 32.18 219.85 34.38H218.19C217.35 32.94 216.01 32.16 214.39 32.16C211.95 32.16 210.05 34.08 210.05 36.54C210.05 38.98 211.99 40.9 214.45 40.9C216.01 40.9 217.05 40.3 218.19 38.78ZM221.92 42V31.06H223.4V35.94L228.4 31.06H230.32L224.86 36.36L230.32 42H228.38L223.4 36.84V42H221.92ZM233.065 45.84L234.845 41.64L230.605 31.06H232.225L235.685 39.78L239.385 31.06H240.965L234.645 45.84H233.065ZM251.708 40.98C254.168 40.98 255.928 39.14 255.928 36.58C255.928 34 254.108 32.08 251.628 32.08C249.128 32.08 247.268 33.96 247.268 36.5C247.268 39.12 249.108 40.98 251.708 40.98ZM242.408 42V31.06H243.888V35.76H245.788C246.128 32.84 248.568 30.72 251.628 30.72C254.988 30.72 257.448 33.18 257.448 36.56C257.448 39.88 255.028 42.34 251.748 42.34C248.528 42.34 246.088 40.2 245.788 37.1H243.888V42H242.408ZM25.4353 66V55.06H27.7353L31.5553 63.94L35.3753 55.06H37.6753V66H36.1953V56.68L32.1953 66H30.9153L26.9153 56.68V66H25.4353ZM41.5809 69.84L43.3609 65.64L39.1209 55.06H40.7409L44.2009 63.78L47.9009 55.06H49.4809L43.1609 69.84H41.5809ZM50.3836 62.84H51.8836C51.9636 64.04 53.0436 64.9 54.4436 64.9C55.8836 64.9 57.0436 63.98 57.0436 62.84C57.0436 61.58 55.7436 60.84 53.5836 60.84V59.62C55.4436 59.62 56.4636 58.98 56.4636 57.82C56.4636 56.92 55.5436 56.18 54.4236 56.18C53.3436 56.18 52.5036 56.86 52.4236 57.82H50.9236C51.0036 56.1 52.5036 54.8 54.4436 54.8C56.4236 54.8 57.9636 56.12 57.9636 57.82C57.9636 58.9 57.4036 59.7 56.3836 60.06V60.12C57.7836 60.52 58.5436 61.46 58.5436 62.84C58.5436 64.74 56.7436 66.26 54.4636 66.26C52.2236 66.26 50.4636 64.78 50.3836 62.84ZM62.0129 64.66H64.6529C66.4129 64.66 67.2929 64.02 67.2929 62.72C67.2929 61.42 66.4129 60.78 64.6529 60.78H62.0129V64.66ZM60.5329 66V55.06H62.0129V59.44H65.0329C67.2529 59.44 68.7929 60.78 68.7929 62.72C68.7929 64.66 67.2529 66 65.0329 66H60.5329ZM70.113 66V55.06H71.593V66H70.113ZM74.1072 66V55.06H75.5872V59.94L80.5872 55.06H82.5072L77.0472 60.36L82.5072 66H80.5672L75.5872 60.84V66H74.1072ZM85.2528 69.84L87.0328 65.64L82.7928 55.06H84.4128L87.8728 63.78L91.5728 55.06H93.1528L86.8328 69.84H85.2528ZM101.142 57.64L101.202 57.66C101.942 55.88 103.742 54.8 105.982 54.8C109.002 54.8 111.402 57.32 111.402 60.52C111.402 63.8 108.922 66.26 105.622 66.26C101.882 66.26 99.8623 63.92 99.8623 59.56V58.96C99.8623 53.6 101.782 51 105.982 50.64L110.642 50.24V51.6L106.102 52.02C102.862 52.32 101.222 54.2 101.142 57.64ZM105.582 64.9C108.042 64.9 109.902 63 109.902 60.48C109.902 58.02 108.062 56.16 105.602 56.16C103.182 56.16 101.342 58.04 101.342 60.48C101.342 63.04 103.142 64.9 105.582 64.9ZM112.342 66L117.042 55.06H118.702L123.402 66H121.842L117.882 56.74L113.902 66H112.342ZM124.771 66V55.06H126.251V63.9L132.911 55.06H134.391V66H132.911V57.16L126.251 66H124.771ZM135.76 66L140.44 60.38L135.76 55.06H137.62L141.94 60.02V55.06H143.42V60.02L147.74 55.06H149.6L144.92 60.38L149.6 66H147.74L143.42 60.76V66H141.94V60.76L137.62 66H135.76ZM160.103 62.4H161.643C160.843 64.7 158.703 66.26 156.323 66.26C153.083 66.26 150.543 63.72 150.543 60.48C150.543 57.3 153.043 54.8 156.203 54.8C159.343 54.8 161.983 57.36 161.983 60.4C161.983 60.6 161.943 60.82 161.903 61.02H152.023C152.143 63.18 154.023 64.9 156.283 64.9C157.943 64.9 159.483 63.9 160.103 62.4ZM152.063 59.68H160.443C159.943 57.5 158.323 56.16 156.203 56.16C154.123 56.16 152.463 57.58 152.063 59.68ZM25.4353 90V79.06H26.9153V87.9L33.5753 79.06H35.0553V90H33.5753V81.16L26.9153 90H25.4353ZM43.1306 90V79.06H52.5506V90H51.0706V80.4H44.6106V90H43.1306ZM54.6442 84.54C54.6442 81.22 57.0842 78.8 60.4442 78.8C63.6642 78.8 66.0642 81.26 66.0642 84.56C66.0642 87.84 63.7042 90.26 60.4842 90.26C57.1442 90.26 54.6442 87.82 54.6442 84.54ZM60.4442 88.9C62.8442 88.9 64.5642 87.1 64.5642 84.58C64.5642 82 62.8042 80.16 60.3242 80.16C57.9242 80.16 56.1442 82.04 56.1442 84.56C56.1442 87.06 57.9642 88.9 60.4442 88.9ZM68.1697 90V79.06H69.6497V83.76H76.2097V79.06H77.6897V90H76.2097V85.1H69.6497V90H68.1697ZM86.3009 84.24V80.4H83.7609C82.0009 80.4 81.1209 81.04 81.1209 82.32C81.1209 83.6 82.0009 84.24 83.7609 84.24H86.3009ZM79.1209 90L82.2809 85.46C80.6409 85.08 79.6209 83.88 79.6209 82.32C79.6209 80.4 81.1609 79.06 83.3809 79.06H87.7809V90H86.3009V85.58H83.8809L80.8009 90H79.1209ZM92.1586 90V80.4H89.2786V79.06H96.4786V80.4H93.6386V90H92.1586ZM97.9744 90V79.06H99.4544V83.76H106.014V79.06H107.494V90H106.014V85.1H99.4544V90H97.9744ZM119.146 86.4H120.686C119.886 88.7 117.746 90.26 115.366 90.26C112.126 90.26 109.586 87.72 109.586 84.48C109.586 81.3 112.086 78.8 115.246 78.8C118.386 78.8 121.026 81.36 121.026 84.4C121.026 84.6 120.986 84.82 120.946 85.02H111.066C111.186 87.18 113.066 88.9 115.326 88.9C116.986 88.9 118.526 87.9 119.146 86.4ZM111.106 83.68H119.486C118.986 81.5 117.366 80.16 115.246 80.16C113.166 80.16 111.506 81.58 111.106 83.68ZM132.153 86.4H133.693C132.893 88.7 130.753 90.26 128.373 90.26C125.133 90.26 122.593 87.72 122.593 84.48C122.593 81.3 125.093 78.8 128.253 78.8C131.393 78.8 134.033 81.36 134.033 84.4C134.033 84.6 133.993 84.82 133.953 85.02H124.073C124.193 87.18 126.073 88.9 128.333 88.9C129.993 88.9 131.533 87.9 132.153 86.4ZM124.113 83.68H132.493C131.993 81.5 130.373 80.16 128.253 80.16C126.173 80.16 124.513 81.58 124.113 83.68ZM24.5153 116.52V112.66H25.9353L30.0353 103.06H31.7153L35.8153 112.66H37.2353V116.52H36.2153L35.6753 114H26.0753L25.5353 116.52H24.5153ZM27.4953 112.66H34.2553L30.8753 104.74L27.4953 112.66ZM37.6737 114L42.3737 103.06H44.0337L48.7337 114H47.1737L43.2137 104.74L39.2337 114H37.6737ZM56.2033 108.24V104.4H53.6633C51.9033 104.4 51.0233 105.04 51.0233 106.32C51.0233 107.6 51.9033 108.24 53.6633 108.24H56.2033ZM49.0233 114L52.1833 109.46C50.5433 109.08 49.5233 107.88 49.5233 106.32C49.5233 104.4 51.0633 103.06 53.2833 103.06H57.6833V114H56.2033V109.58H53.7833L50.7033 114H49.0233ZM65.7478 114V103.06H67.2278V107.94L72.2278 103.06H74.1478L68.6878 108.36L74.1478 114H72.2078L67.2278 108.84V114H65.7478ZM75.0934 108.56C75.0934 105.28 77.5734 102.8 80.8534 102.8C82.7734 102.8 84.0734 103.46 85.1734 105V103.06H86.6534V114H85.1734V112.08C84.0134 113.64 82.8334 114.26 80.9734 114.26C77.5934 114.26 75.0934 111.84 75.0934 108.56ZM76.5934 108.5C76.5934 110.96 78.5334 112.9 80.9534 112.9C83.3334 112.9 85.1734 110.98 85.1734 108.5C85.1734 106.02 83.3134 104.16 80.8334 104.16C78.4934 104.16 76.5934 106.1 76.5934 108.5ZM88.0058 114L92.6858 108.38L88.0058 103.06H89.8658L94.1858 108.02V103.06H95.6658V108.02L99.9858 103.06H101.846L97.1658 108.38L101.846 114H99.9858L95.6658 108.76V114H94.1858V108.76L89.8658 114H88.0058ZM102.289 116.52V112.66H103.709L107.809 103.06H109.489L113.589 112.66H115.009V116.52H113.989L113.449 114H103.849L103.309 116.52H102.289ZM105.269 112.66H112.029L108.649 104.74L105.269 112.66ZM115.269 108.54C115.269 105.22 117.709 102.8 121.069 102.8C124.289 102.8 126.689 105.26 126.689 108.56C126.689 111.84 124.329 114.26 121.109 114.26C117.769 114.26 115.269 111.82 115.269 108.54ZM121.069 112.9C123.469 112.9 125.189 111.1 125.189 108.58C125.189 106 123.429 104.16 120.949 104.16C118.549 104.16 116.769 106.04 116.769 108.56C116.769 111.06 118.589 112.9 121.069 112.9ZM128.795 114V103.06H134.395V104.4H130.275V114H128.795ZM135.484 108.54C135.484 105.22 137.924 102.8 141.284 102.8C144.504 102.8 146.904 105.26 146.904 108.56C146.904 111.84 144.544 114.26 141.324 114.26C137.984 114.26 135.484 111.82 135.484 108.54ZM141.284 112.9C143.684 112.9 145.404 111.1 145.404 108.58C145.404 106 143.644 104.16 141.164 104.16C138.764 104.16 136.984 106.04 136.984 108.56C136.984 111.06 138.804 112.9 141.284 112.9Z" fill="black"/>
</svg>
