<svg width="339" height="328" viewBox="0 0 339 328" fill="none" xmlns="http://www.w3.org/2000/svg">
<mask id="mask0_6_61" style="mask-type:alpha" maskUnits="userSpaceOnUse" x="0" y="0" width="339" height="328">
<rect width="339" height="328" rx="21" fill="#F8F6FA"/>
</mask>
<g mask="url(#mask0_6_61)">
<path d="M-707 277.702C-704 228.369 -656.4 144.502 -490 203.702C-282 277.702 -248.5 301.202 -129 297.202C-33.3614 294.001 100 216.202 120.5 242.202C133.287 258.419 82 254.202 74 229.702C66 205.202 86 186.644 116 180.202C197.5 162.702 357.5 195.702 357.5 358.702" stroke="black" stroke-width="3"/>
</g>
<path d="M32.9558 42V27.22H34.4358V34L41.1758 27.22H43.1358L35.8358 34.54L43.1358 42H41.1358L34.4358 35.12V42H32.9558ZM44.0922 36.56C44.0922 33.28 46.5722 30.8 49.8522 30.8C51.7722 30.8 53.0722 31.46 54.1722 33V31.06H55.6522V42H54.1722V40.08C53.0122 41.64 51.8322 42.26 49.9722 42.26C46.5922 42.26 44.0922 39.84 44.0922 36.56ZM45.5922 36.5C45.5922 38.96 47.5322 40.9 49.9522 40.9C52.3322 40.9 54.1722 38.98 54.1722 36.5C54.1722 34.02 52.3122 32.16 49.8322 32.16C47.4922 32.16 45.5922 34.1 45.5922 36.5ZM57.0045 42L61.6845 36.38L57.0045 31.06H58.8645L63.1845 36.02V31.06H64.6645V36.02L68.9845 31.06H70.8445L66.1645 36.38L70.8445 42H68.9845L64.6645 36.76V42H63.1845V36.76L58.8645 42H57.0045ZM71.2875 44.52V40.66H72.7075L76.8075 31.06H78.4875L82.5875 40.66H84.0075V44.52H82.9875L82.4475 42H72.8475L72.3075 44.52H71.2875ZM74.2675 40.66H81.0275L77.6475 32.74L74.2675 40.66ZM84.268 36.54C84.268 33.22 86.708 30.8 90.068 30.8C93.288 30.8 95.688 33.26 95.688 36.56C95.688 39.84 93.328 42.26 90.108 42.26C86.768 42.26 84.268 39.82 84.268 36.54ZM90.068 40.9C92.468 40.9 94.188 39.1 94.188 36.58C94.188 34 92.428 32.16 89.948 32.16C87.548 32.16 85.768 34.04 85.768 36.56C85.768 39.06 87.588 40.9 90.068 40.9ZM106.933 38.4H108.473C107.673 40.7 105.533 42.26 103.153 42.26C99.9134 42.26 97.3734 39.72 97.3734 36.48C97.3734 33.3 99.8734 30.8 103.033 30.8C106.173 30.8 108.813 33.36 108.813 36.4C108.813 36.6 108.773 36.82 108.733 37.02H98.8534C98.9734 39.18 100.853 40.9 103.113 40.9C104.773 40.9 106.313 39.9 106.933 38.4ZM98.8934 35.68H107.273C106.773 33.5 105.153 32.16 103.033 32.16C100.953 32.16 99.2934 33.58 98.8934 35.68ZM125.568 38.78H127.248C125.988 41.14 124.268 42.26 121.888 42.26C118.528 42.26 115.928 39.76 115.928 36.5C115.928 33.32 118.508 30.8 121.788 30.8C124.268 30.8 126.348 32.18 127.228 34.38H125.568C124.728 32.94 123.388 32.16 121.768 32.16C119.328 32.16 117.428 34.08 117.428 36.54C117.428 38.98 119.368 40.9 121.828 40.9C123.388 40.9 124.428 40.3 125.568 38.78ZM128.877 36.54C128.877 33.22 131.317 30.8 134.677 30.8C137.897 30.8 140.297 33.26 140.297 36.56C140.297 39.84 137.937 42.26 134.717 42.26C131.377 42.26 128.877 39.82 128.877 36.54ZM134.677 40.9C137.077 40.9 138.797 39.1 138.797 36.58C138.797 34 137.037 32.16 134.557 32.16C132.157 32.16 130.377 34.04 130.377 36.56C130.377 39.06 132.197 40.9 134.677 40.9ZM143.403 33.64L143.463 33.66C144.203 31.88 146.003 30.8 148.243 30.8C151.263 30.8 153.663 33.32 153.663 36.52C153.663 39.8 151.183 42.26 147.883 42.26C144.143 42.26 142.123 39.92 142.123 35.56V34.96C142.123 29.6 144.043 27 148.243 26.64L152.903 26.24V27.6L148.363 28.02C145.123 28.32 143.483 30.2 143.403 33.64ZM147.843 40.9C150.303 40.9 152.163 39 152.163 36.48C152.163 34.02 150.323 32.16 147.863 32.16C145.443 32.16 143.603 34.04 143.603 36.48C143.603 39.04 145.403 40.9 147.843 40.9ZM157.242 40.66H159.882C161.642 40.66 162.522 40.02 162.522 38.72C162.522 37.42 161.642 36.78 159.882 36.78H157.242V40.66ZM155.762 42V31.06H157.242V35.44H160.262C162.482 35.44 164.022 36.78 164.022 38.72C164.022 40.66 162.482 42 160.262 42H155.762ZM165.342 42V31.06H166.822V42H165.342ZM171.196 42V32.4H168.316V31.06H175.516V32.4H172.676V42H171.196ZM177.012 42V31.06H178.492V39.9L185.152 31.06H186.632V42H185.152V33.16L178.492 42H177.012ZM198.301 38.4H199.841C199.041 40.7 196.901 42.26 194.521 42.26C191.281 42.26 188.741 39.72 188.741 36.48C188.741 33.3 191.241 30.8 194.401 30.8C197.541 30.8 200.181 33.36 200.181 36.4C200.181 36.6 200.141 36.82 200.101 37.02H190.221C190.341 39.18 192.221 40.9 194.481 40.9C196.141 40.9 197.681 39.9 198.301 38.4ZM190.261 35.68H198.641C198.141 33.5 196.521 32.16 194.401 32.16C192.321 32.16 190.661 33.58 190.261 35.68ZM206.455 37.34V36.08H226.455V37.34H206.455ZM232.782 38.9H234.482C235.322 40.18 236.662 40.9 238.142 40.9C240.382 40.9 242.222 39.3 242.502 37.14H235.982V35.8H242.482C242.142 33.68 240.362 32.16 238.202 32.16C236.602 32.16 235.342 32.88 234.482 34.26H232.782C233.742 32.08 235.742 30.8 238.182 30.8C241.462 30.8 244.042 33.32 244.042 36.5C244.042 39.76 241.442 42.26 238.082 42.26C235.762 42.26 233.902 41.08 232.782 38.9ZM247.993 42V32.4H245.113V31.06H252.313V32.4H249.473V42H247.993ZM253.389 36.54C253.389 33.22 255.829 30.8 259.189 30.8C262.409 30.8 264.809 33.26 264.809 36.56C264.809 39.84 262.449 42.26 259.229 42.26C255.889 42.26 253.389 39.82 253.389 36.54ZM259.189 40.9C261.589 40.9 263.309 39.1 263.309 36.58C263.309 34 261.549 32.16 259.069 32.16C256.669 32.16 254.889 34.04 254.889 36.56C254.889 39.06 256.709 40.9 259.189 40.9ZM32.6958 66V55.06H34.1758V59.76H40.7358V55.06H42.2158V66H40.7358V61.1H34.1758V66H32.6958ZM53.867 62.4H55.407C54.607 64.7 52.467 66.26 50.087 66.26C46.847 66.26 44.307 63.72 44.307 60.48C44.307 57.3 46.807 54.8 49.967 54.8C53.107 54.8 55.747 57.36 55.747 60.4C55.747 60.6 55.707 60.82 55.667 61.02H45.787C45.907 63.18 47.787 64.9 50.047 64.9C51.707 64.9 53.247 63.9 53.867 62.4ZM45.827 59.68H54.207C53.707 57.5 52.087 56.16 49.967 56.16C47.887 56.16 46.227 57.58 45.827 59.68ZM63.2817 66V55.06H72.7017V66H71.2217V56.4H64.7617V66H63.2817ZM75.2153 69.84V55.06H76.6953V56.94C77.6153 55.54 79.1153 54.8 80.9953 54.8C84.2553 54.8 86.7553 57.28 86.7553 60.54C86.7553 63.76 84.2353 66.26 80.9553 66.26C79.1353 66.26 77.6553 65.52 76.6953 64.12V69.84H75.2153ZM80.9353 64.9C83.3953 64.9 85.2553 63.04 85.2553 60.58C85.2553 58 83.4153 56.16 80.8753 56.16C78.4753 56.16 76.5953 58.08 76.5953 60.54C76.5953 63 78.4753 64.9 80.9353 64.9ZM88.4281 60.54C88.4281 57.22 90.8681 54.8 94.2281 54.8C97.4481 54.8 99.8481 57.26 99.8481 60.56C99.8481 63.84 97.4881 66.26 94.2681 66.26C90.9281 66.26 88.4281 63.82 88.4281 60.54ZM94.2281 64.9C96.6281 64.9 98.3481 63.1 98.3481 60.58C98.3481 58 96.5881 56.16 94.1081 56.16C91.7081 56.16 89.9281 58.04 89.9281 60.56C89.9281 63.06 91.7481 64.9 94.2281 64.9ZM111.174 62.78H112.854C111.594 65.14 109.874 66.26 107.494 66.26C104.134 66.26 101.534 63.76 101.534 60.5C101.534 57.32 104.114 54.8 107.394 54.8C109.874 54.8 111.954 56.18 112.834 58.38H111.174C110.334 56.94 108.994 56.16 107.374 56.16C104.934 56.16 103.034 58.08 103.034 60.54C103.034 62.98 104.974 64.9 107.434 64.9C108.994 64.9 110.034 64.3 111.174 62.78ZM116.763 66V56.4H113.883V55.06H121.083V56.4H118.243V66H116.763ZM122.159 60.54C122.159 57.22 124.599 54.8 127.959 54.8C131.179 54.8 133.579 57.26 133.579 60.56C133.579 63.84 131.219 66.26 127.999 66.26C124.659 66.26 122.159 63.82 122.159 60.54ZM127.959 64.9C130.359 64.9 132.079 63.1 132.079 60.58C132.079 58 130.319 56.16 127.839 56.16C125.439 56.16 123.659 58.04 123.659 60.56C123.659 63.06 125.479 64.9 127.959 64.9ZM141.231 66V55.06H142.711V59.94L147.711 55.06H149.631L144.171 60.36L149.631 66H147.691L142.711 60.84V66H141.231ZM150.577 60.54C150.577 57.22 153.017 54.8 156.377 54.8C159.597 54.8 161.997 57.26 161.997 60.56C161.997 63.84 159.637 66.26 156.417 66.26C153.077 66.26 150.577 63.82 150.577 60.54ZM156.377 64.9C158.777 64.9 160.497 63.1 160.497 60.58C160.497 58 158.737 56.16 156.257 56.16C153.857 56.16 152.077 58.04 152.077 60.56C152.077 63.06 153.897 64.9 156.377 64.9ZM164.102 66V55.06H165.582V59.76H172.142V55.06H173.622V66H172.142V61.1H165.582V66H164.102ZM176.133 66V55.06H177.613V64.66H183.873V55.06H185.353V64.66H187.133V68.52H186.113L185.573 66H176.133ZM197.715 62.4H199.255C198.455 64.7 196.315 66.26 193.935 66.26C190.695 66.26 188.155 63.72 188.155 60.48C188.155 57.3 190.655 54.8 193.815 54.8C196.955 54.8 199.595 57.36 199.595 60.4C199.595 60.6 199.555 60.82 199.515 61.02H189.635C189.755 63.18 191.635 64.9 193.895 64.9C195.555 64.9 197.095 63.9 197.715 62.4ZM189.675 59.68H198.055C197.555 57.5 195.935 56.16 193.815 56.16C191.735 56.16 190.075 57.58 189.675 59.68ZM201.583 69.84V55.06H203.063V56.94C203.983 55.54 205.483 54.8 207.363 54.8C210.623 54.8 213.123 57.28 213.123 60.54C213.123 63.76 210.603 66.26 207.323 66.26C205.503 66.26 204.023 65.52 203.063 64.12V69.84H201.583ZM207.303 64.9C209.763 64.9 211.623 63.04 211.623 60.58C211.623 58 209.783 56.16 207.243 56.16C204.843 56.16 202.963 58.08 202.963 60.54C202.963 63 204.843 64.9 207.303 64.9ZM217.075 66V56.4H214.195V55.06H221.395V56.4H218.555V66H217.075ZM223.451 66V63.48H224.931V66.4C224.931 67.54 224.051 68.52 223.031 68.52V67.64C223.571 67.64 224.051 67.12 224.051 66.54V66H223.451ZM232.725 60.56C232.725 57.28 235.205 54.8 238.485 54.8C240.405 54.8 241.705 55.46 242.805 57V55.06H244.285V66H242.805V64.08C241.645 65.64 240.465 66.26 238.605 66.26C235.225 66.26 232.725 63.84 232.725 60.56ZM234.225 60.5C234.225 62.96 236.165 64.9 238.585 64.9C240.965 64.9 242.805 62.98 242.805 60.5C242.805 58.02 240.945 56.16 238.465 56.16C236.125 56.16 234.225 58.1 234.225 60.5ZM252.344 66V55.06H253.824V64.66H260.084V55.06H261.564V64.66H263.344V68.52H262.324L261.784 66H252.344ZM273.926 62.4H275.466C274.666 64.7 272.526 66.26 270.146 66.26C266.906 66.26 264.366 63.72 264.366 60.48C264.366 57.3 266.866 54.8 270.026 54.8C273.166 54.8 275.806 57.36 275.806 60.4C275.806 60.6 275.766 60.82 275.726 61.02H265.846C265.966 63.18 267.846 64.9 270.106 64.9C271.766 64.9 273.306 63.9 273.926 62.4ZM265.886 59.68H274.266C273.766 57.5 272.146 56.16 270.026 56.16C267.946 56.16 266.286 57.58 265.886 59.68ZM275.715 66L280.415 55.06H282.075L286.775 66H285.215L281.255 56.74L277.275 66H275.715ZM286.807 60.56C286.807 57.28 289.287 54.8 292.567 54.8C294.487 54.8 295.787 55.46 296.887 57V55.06H298.367V66H296.887V64.08C295.727 65.64 294.547 66.26 292.687 66.26C289.307 66.26 286.807 63.84 286.807 60.56ZM288.307 60.5C288.307 62.96 290.247 64.9 292.667 64.9C295.047 64.9 296.887 62.98 296.887 60.5C296.887 58.02 295.027 56.16 292.547 56.16C290.207 56.16 288.307 58.1 288.307 60.5ZM306.979 60.24V56.4H304.439C302.679 56.4 301.799 57.04 301.799 58.32C301.799 59.6 302.679 60.24 304.439 60.24H306.979ZM299.799 66L302.959 61.46C301.319 61.08 300.299 59.88 300.299 58.32C300.299 56.4 301.839 55.06 304.059 55.06H308.459V66H306.979V61.58H304.559L301.479 66H299.799ZM32.6958 90V79.06H37.0758C39.4358 79.06 40.8558 80.14 40.8558 81.94C40.8558 82.82 40.2158 83.76 39.3758 84.12C40.7158 84.62 41.4158 85.5 41.4158 86.74C41.4158 88.64 39.7358 90 37.3758 90H32.6958ZM34.1758 83.58H36.8358C38.4958 83.58 39.4358 82.98 39.4358 81.94C39.4358 80.92 38.5558 80.4 36.8358 80.4H34.1758V83.58ZM34.1758 88.66H36.9958C38.8758 88.66 39.9158 87.98 39.9158 86.74C39.9158 85.52 38.9358 84.92 36.9958 84.92H34.1758V88.66ZM52.6189 86.78H54.2989C53.0389 89.14 51.3189 90.26 48.9389 90.26C45.5789 90.26 42.9789 87.76 42.9789 84.5C42.9789 81.32 45.5589 78.8 48.8389 78.8C51.3189 78.8 53.3989 80.18 54.2789 82.38H52.6189C51.7789 80.94 50.4389 80.16 48.8189 80.16C46.3789 80.16 44.4789 82.08 44.4789 84.54C44.4789 86.98 46.4189 88.9 48.8789 88.9C50.4389 88.9 51.4789 88.3 52.6189 86.78ZM65.4881 86.4H67.0281C66.2281 88.7 64.0881 90.26 61.7081 90.26C58.4681 90.26 55.9281 87.72 55.9281 84.48C55.9281 81.3 58.4281 78.8 61.5881 78.8C64.7281 78.8 67.3681 81.36 67.3681 84.4C67.3681 84.6 67.3281 84.82 67.2881 85.02H57.4081C57.5281 87.18 59.4081 88.9 61.6681 88.9C63.3281 88.9 64.8681 87.9 65.4881 86.4ZM57.4481 83.68H65.8281C65.3281 81.5 63.7081 80.16 61.5881 80.16C59.5081 80.16 57.8481 81.58 57.4481 83.68ZM67.278 90L71.978 79.06H73.638L78.338 90H76.778L72.818 80.74L68.838 90H67.278ZM87.9295 86.4H89.4695C88.6695 88.7 86.5295 90.26 84.1495 90.26C80.9095 90.26 78.3695 87.72 78.3695 84.48C78.3695 81.3 80.8695 78.8 84.0295 78.8C87.1695 78.8 89.8095 81.36 89.8095 84.4C89.8095 84.6 89.7695 84.82 89.7295 85.02H79.8495C79.9695 87.18 81.8495 88.9 84.1095 88.9C85.7695 88.9 87.3095 87.9 87.9295 86.4ZM79.8895 83.68H88.2695C87.7695 81.5 86.1495 80.16 84.0295 80.16C81.9495 80.16 80.2895 81.58 79.8895 83.68ZM91.7974 90V79.06H93.2774V83.76H99.8374V79.06H101.317V90H99.8374V85.1H93.2774V90H91.7974ZM103.829 90V79.06H105.309V83.76H111.869V79.06H113.349V90H111.869V85.1H105.309V90H103.829ZM115.44 84.56C115.44 81.28 117.92 78.8 121.2 78.8C123.12 78.8 124.42 79.46 125.52 81V79.06H127V90H125.52V88.08C124.36 89.64 123.18 90.26 121.32 90.26C117.94 90.26 115.44 87.84 115.44 84.56ZM116.94 84.5C116.94 86.96 118.88 88.9 121.3 88.9C123.68 88.9 125.52 86.98 125.52 84.5C125.52 82.02 123.66 80.16 121.18 80.16C118.84 80.16 116.94 82.1 116.94 84.5ZM135.612 84.24V80.4H133.072C131.312 80.4 130.432 81.04 130.432 82.32C130.432 83.6 131.312 84.24 133.072 84.24H135.612ZM128.432 90L131.592 85.46C129.952 85.08 128.932 83.88 128.932 82.32C128.932 80.4 130.472 79.06 132.692 79.06H137.092V90H135.612V85.58H133.192L130.112 90H128.432ZM140.17 90V87.48H141.65V90.4C141.65 91.54 140.77 92.52 139.75 92.52V91.64C140.29 91.64 140.77 91.12 140.77 90.54V90H140.17ZM149.864 90V79.06H151.344V83.94L156.344 79.06H158.264L152.804 84.36L158.264 90H156.324L151.344 84.84V90H149.864ZM161.009 93.84L162.789 89.64L158.549 79.06H160.169L163.629 87.78L167.329 79.06H168.909L162.589 93.84H161.009ZM167.752 92.52V88.66H169.172L173.272 79.06H174.952L179.052 88.66H180.472V92.52H179.452L178.912 90H169.312L168.772 92.52H167.752ZM170.732 88.66H177.492L174.112 80.74L170.732 88.66ZM180.733 84.56C180.733 81.28 183.213 78.8 186.493 78.8C188.413 78.8 189.713 79.46 190.813 81V79.06H192.293V90H190.813V88.08C189.653 89.64 188.473 90.26 186.613 90.26C183.233 90.26 180.733 87.84 180.733 84.56ZM182.233 84.5C182.233 86.96 184.173 88.9 186.593 88.9C188.973 88.9 190.813 86.98 190.813 84.5C190.813 82.02 188.953 80.16 186.473 80.16C184.133 80.16 182.233 82.1 182.233 84.5ZM199.252 90L203.052 84.42L199.252 79.06H200.932L203.892 83.28L206.832 79.06H208.532L204.712 84.42L208.532 90H206.832L203.892 85.62L200.932 90H199.252ZM209.541 84.54C209.541 81.22 211.981 78.8 215.341 78.8C218.561 78.8 220.961 81.26 220.961 84.56C220.961 87.84 218.601 90.26 215.381 90.26C212.041 90.26 209.541 87.82 209.541 84.54ZM215.341 88.9C217.741 88.9 219.461 87.1 219.461 84.58C219.461 82 217.701 80.16 215.221 80.16C212.821 80.16 211.041 82.04 211.041 84.56C211.041 87.06 212.861 88.9 215.341 88.9ZM229.527 90V85.64C228.407 85.78 227.267 85.84 226.087 85.84C223.987 85.84 222.707 84.52 222.707 82.38V79.06H224.187V82.38C224.187 84.06 224.827 84.5 227.267 84.5C227.987 84.5 228.507 84.46 229.527 84.32V79.06H231.007V90H229.527ZM242.676 86.4H244.216C243.416 88.7 241.276 90.26 238.896 90.26C235.656 90.26 233.116 87.72 233.116 84.48C233.116 81.3 235.616 78.8 238.776 78.8C241.916 78.8 244.556 81.36 244.556 84.4C244.556 84.6 244.516 84.82 244.476 85.02H234.596C234.716 87.18 236.596 88.9 238.856 88.9C240.516 88.9 242.056 87.9 242.676 86.4ZM234.636 83.68H243.016C242.516 81.5 240.896 80.16 238.776 80.16C236.696 80.16 235.036 81.58 234.636 83.68ZM248.403 90V80.4H245.523V79.06H252.723V80.4H249.883V90H248.403ZM263.439 86.78H265.119C263.859 89.14 262.139 90.26 259.759 90.26C256.399 90.26 253.799 87.76 253.799 84.5C253.799 81.32 256.379 78.8 259.659 78.8C262.139 78.8 264.219 80.18 265.099 82.38H263.439C262.599 80.94 261.259 80.16 259.639 80.16C257.199 80.16 255.299 82.08 255.299 84.54C255.299 86.98 257.239 88.9 259.699 88.9C261.259 88.9 262.299 88.3 263.439 86.78ZM273.268 84.24V80.4H270.728C268.968 80.4 268.088 81.04 268.088 82.32C268.088 83.6 268.968 84.24 270.728 84.24H273.268ZM266.088 90L269.248 85.46C267.608 85.08 266.588 83.88 266.588 82.32C266.588 80.4 268.128 79.06 270.348 79.06H274.748V90H273.268V85.58H270.848L267.768 90H266.088ZM32.6958 114V103.06H37.0758C39.4358 103.06 40.8558 104.14 40.8558 105.94C40.8558 106.82 40.2158 107.76 39.3758 108.12C40.7158 108.62 41.4158 109.5 41.4158 110.74C41.4158 112.64 39.7358 114 37.3758 114H32.6958ZM34.1758 107.58H36.8358C38.4958 107.58 39.4358 106.98 39.4358 105.94C39.4358 104.92 38.5558 104.4 36.8358 104.4H34.1758V107.58ZM34.1758 112.66H36.9958C38.8758 112.66 39.9158 111.98 39.9158 110.74C39.9158 109.52 38.9358 108.92 36.9958 108.92H34.1758V112.66ZM42.9789 108.54C42.9789 105.22 45.4189 102.8 48.7789 102.8C51.9989 102.8 54.3989 105.26 54.3989 108.56C54.3989 111.84 52.0389 114.26 48.8189 114.26C45.4789 114.26 42.9789 111.82 42.9789 108.54ZM48.7789 112.9C51.1789 112.9 52.8989 111.1 52.8989 108.58C52.8989 106 51.1389 104.16 48.6589 104.16C46.2589 104.16 44.4789 106.04 44.4789 108.56C44.4789 111.06 46.2989 112.9 48.7789 112.9ZM55.9644 110.84H57.4644C57.5444 112.04 58.6244 112.9 60.0244 112.9C61.4644 112.9 62.6244 111.98 62.6244 110.84C62.6244 109.58 61.3244 108.84 59.1644 108.84V107.62C61.0244 107.62 62.0444 106.98 62.0444 105.82C62.0444 104.92 61.1244 104.18 60.0044 104.18C58.9244 104.18 58.0844 104.86 58.0044 105.82H56.5044C56.5844 104.1 58.0844 102.8 60.0244 102.8C62.0044 102.8 63.5444 104.12 63.5444 105.82C63.5444 106.9 62.9844 107.7 61.9644 108.06V108.12C63.3644 108.52 64.1244 109.46 64.1244 110.84C64.1244 112.74 62.3244 114.26 60.0444 114.26C57.8044 114.26 56.0444 112.78 55.9644 110.84ZM66.1138 114V103.06H70.4938C72.8538 103.06 74.2738 104.14 74.2738 105.94C74.2738 106.82 73.6338 107.76 72.7938 108.12C74.1338 108.62 74.8338 109.5 74.8338 110.74C74.8338 112.64 73.1538 114 70.7938 114H66.1138ZM67.5938 107.58H70.2538C71.9138 107.58 72.8538 106.98 72.8538 105.94C72.8538 104.92 71.9738 104.4 70.2538 104.4H67.5938V107.58ZM67.5938 112.66H70.4138C72.2938 112.66 73.3338 111.98 73.3338 110.74C73.3338 109.52 72.3538 108.92 70.4138 108.92H67.5938V112.66ZM76.8169 117.84V103.06H78.2969V104.94C79.2169 103.54 80.7169 102.8 82.5969 102.8C85.8569 102.8 88.3569 105.28 88.3569 108.54C88.3569 111.76 85.8369 114.26 82.5569 114.26C80.7369 114.26 79.2569 113.52 78.2969 112.12V117.84H76.8169ZM82.5369 112.9C84.9969 112.9 86.8569 111.04 86.8569 108.58C86.8569 106 85.0169 104.16 82.4769 104.16C80.0769 104.16 78.1969 106.08 78.1969 108.54C78.1969 111 80.0769 112.9 82.5369 112.9ZM90.0297 108.56C90.0297 105.28 92.5097 102.8 95.7897 102.8C97.7097 102.8 99.0097 103.46 100.11 105V103.06H101.59V114H100.11V112.08C98.9497 113.64 97.7697 114.26 95.9097 114.26C92.5297 114.26 90.0297 111.84 90.0297 108.56ZM91.5297 108.5C91.5297 110.96 93.4697 112.9 95.8897 112.9C98.2697 112.9 100.11 110.98 100.11 108.5C100.11 106.02 98.2497 104.16 95.7697 104.16C93.4297 104.16 91.5297 106.1 91.5297 108.5ZM104.102 114V103.06H105.582V112.66H110.122V103.06H111.602V112.66H116.142V103.06H117.622V112.66H119.402V116.52H118.382L117.842 114H104.102ZM120.42 108.56C120.42 105.28 122.9 102.8 126.18 102.8C128.1 102.8 129.4 103.46 130.5 105V103.06H131.98V114H130.5V112.08C129.34 113.64 128.16 114.26 126.3 114.26C122.92 114.26 120.42 111.84 120.42 108.56ZM121.92 108.5C121.92 110.96 123.86 112.9 126.28 112.9C128.66 112.9 130.5 110.98 130.5 108.5C130.5 106.02 128.64 104.16 126.16 104.16C123.82 104.16 121.92 106.1 121.92 108.5ZM136.353 114V104.4H133.473V103.06H140.673V104.4H137.833V114H136.353ZM143.648 112.66H146.488C148.248 112.66 149.128 112.02 149.128 110.72C149.128 109.42 148.248 108.78 146.488 108.78H143.648V112.66ZM142.168 114V103.06H143.648V107.44H146.868C149.088 107.44 150.628 108.78 150.628 110.72C150.628 112.66 149.088 114 146.868 114H142.168ZM161.564 110.78H163.244C161.984 113.14 160.264 114.26 157.884 114.26C154.524 114.26 151.924 111.76 151.924 108.5C151.924 105.32 154.504 102.8 157.784 102.8C160.264 102.8 162.344 104.18 163.224 106.38H161.564C160.724 104.94 159.384 104.16 157.764 104.16C155.324 104.16 153.424 106.08 153.424 108.54C153.424 110.98 155.364 112.9 157.824 112.9C159.384 112.9 160.424 112.3 161.564 110.78ZM171.393 108.24V104.4H168.853C167.093 104.4 166.213 105.04 166.213 106.32C166.213 107.6 167.093 108.24 168.853 108.24H171.393ZM164.213 114L167.373 109.46C165.733 109.08 164.713 107.88 164.713 106.32C164.713 104.4 166.253 103.06 168.473 103.06H172.873V114H171.393V109.58H168.973L165.893 114H164.213ZM180.938 114V103.06H185.318C187.678 103.06 189.098 104.14 189.098 105.94C189.098 106.82 188.458 107.76 187.618 108.12C188.958 108.62 189.658 109.5 189.658 110.74C189.658 112.64 187.978 114 185.618 114H180.938ZM182.418 107.58H185.078C186.738 107.58 187.678 106.98 187.678 105.94C187.678 104.92 186.798 104.4 185.078 104.4H182.418V107.58ZM182.418 112.66H185.238C187.118 112.66 188.158 111.98 188.158 110.74C188.158 109.52 187.178 108.92 185.238 108.92H182.418V112.66ZM191.641 114V103.06H193.121V107.76H199.681V103.06H201.161V114H199.681V109.1H193.121V114H191.641ZM203.252 108.54C203.252 105.22 205.692 102.8 209.052 102.8C212.272 102.8 214.672 105.26 214.672 108.56C214.672 111.84 212.312 114.26 209.092 114.26C205.752 114.26 203.252 111.82 203.252 108.54ZM209.052 112.9C211.452 112.9 213.172 111.1 213.172 108.58C213.172 106 211.412 104.16 208.932 104.16C206.532 104.16 204.752 106.04 204.752 108.56C204.752 111.06 206.572 112.9 209.052 112.9ZM216.778 114V103.06H221.158C223.518 103.06 224.938 104.14 224.938 105.94C224.938 106.82 224.298 107.76 223.458 108.12C224.798 108.62 225.498 109.5 225.498 110.74C225.498 112.64 223.818 114 221.458 114H216.778ZM218.258 107.58H220.918C222.578 107.58 223.518 106.98 223.518 105.94C223.518 104.92 222.638 104.4 220.918 104.4H218.258V107.58ZM218.258 112.66H221.078C222.958 112.66 223.998 111.98 223.998 110.74C223.998 109.52 223.018 108.92 221.078 108.92H218.258V112.66ZM228.961 112.66H231.801C233.561 112.66 234.441 112.02 234.441 110.72C234.441 109.42 233.561 108.78 231.801 108.78H228.961V112.66ZM227.481 114V103.06H228.961V107.44H232.181C234.401 107.44 235.941 108.78 235.941 110.72C235.941 112.66 234.401 114 232.181 114H227.481ZM32.6958 138V127.06H34.1758V135.9L40.8358 127.06H42.3158V138H40.8358V129.16L34.1758 138H32.6958ZM50.3911 138V127.06H54.7711C57.1311 127.06 58.5511 128.14 58.5511 129.94C58.5511 130.82 57.9111 131.76 57.0711 132.12C58.4111 132.62 59.1111 133.5 59.1111 134.74C59.1111 136.64 57.4311 138 55.0711 138H50.3911ZM51.8711 131.58H54.5311C56.1911 131.58 57.1311 130.98 57.1311 129.94C57.1311 128.92 56.2511 128.4 54.5311 128.4H51.8711V131.58ZM51.8711 136.66H54.6911C56.5711 136.66 57.6111 135.98 57.6111 134.74C57.6111 133.52 56.6311 132.92 54.6911 132.92H51.8711V136.66ZM61.0942 138V127.06H62.5742V131.76H69.1342V127.06H70.6142V138H69.1342V133.1H62.5742V138H61.0942ZM72.7055 132.54C72.7055 129.22 75.1455 126.8 78.5055 126.8C81.7255 126.8 84.1255 129.26 84.1255 132.56C84.1255 135.84 81.7655 138.26 78.5455 138.26C75.2055 138.26 72.7055 135.82 72.7055 132.54ZM78.5055 136.9C80.9055 136.9 82.6255 135.1 82.6255 132.58C82.6255 130 80.8655 128.16 78.3855 128.16C75.9855 128.16 74.2055 130.04 74.2055 132.56C74.2055 135.06 76.0255 136.9 78.5055 136.9ZM86.2309 138V127.06H90.6109C92.9709 127.06 94.3909 128.14 94.3909 129.94C94.3909 130.82 93.7509 131.76 92.9109 132.12C94.2509 132.62 94.9509 133.5 94.9509 134.74C94.9509 136.64 93.2709 138 90.9109 138H86.2309ZM87.7109 131.58H90.3709C92.0309 131.58 92.9709 130.98 92.9709 129.94C92.9709 128.92 92.0909 128.4 90.3709 128.4H87.7109V131.58ZM87.7109 136.66H90.5309C92.4109 136.66 93.4509 135.98 93.4509 134.74C93.4509 133.52 92.4709 132.92 90.5309 132.92H87.7109V136.66ZM98.4141 136.66H101.254C103.014 136.66 103.894 136.02 103.894 134.72C103.894 133.42 103.014 132.78 101.254 132.78H98.4141V136.66ZM96.9341 138V127.06H98.4141V131.44H101.634C103.854 131.44 105.394 132.78 105.394 134.72C105.394 136.66 103.854 138 101.634 138H96.9341Z" fill="black"/>
</svg>
